solid csg.js
facet normal -1 0 0
outer loop
vertex 0 0 0
vertex 0 0 0.4
vertex 0 2.5 0.4
endloop
endfacet
facet normal -1 0 0
outer loop
vertex 0 0 0
vertex 0 2.5 0.4
vertex 0 2.5 0
endloop
endfacet
facet normal 1 0 0
outer loop
vertex 5 0.09699999999999998 0
vertex 5 0.097 0.4
vertex 5 0 0.4
endloop
endfacet
facet normal 1 0 0
outer loop
vertex 5 0.09699999999999998 0
vertex 5 0 0.4
vertex 5 0 0
endloop
endfacet
facet normal 1 0 0
outer loop
vertex 5 2.5 0
vertex 5 2.5 0.4
vertex 5 2.3969999999999994 0.4
endloop
endfacet
facet normal 1 0 0
outer loop
vertex 5 2.5 0
vertex 5 2.3969999999999994 0.4
vertex 5 2.3969999999999994 0
endloop
endfacet
facet normal 0 -1 0
outer loop
vertex 0 0 0
vertex 5 0 0
vertex 5 0 0.4
endloop
endfacet
facet normal 0 -1 0
outer loop
vertex 0 0 0
vertex 5 0 0.4
vertex 0 0 0.4
endloop
endfacet
facet normal 0 1 0
outer loop
vertex 0 2.5 0
vertex 0 2.5 0.4
vertex 5 2.5 0.4
endloop
endfacet
facet normal 0 1 0
outer loop
vertex 0 2.5 0
vertex 5 2.5 0.4
vertex 5 2.5 0
endloop
endfacet
facet normal 0 0 -1
outer loop
vertex 5 2.5 0
vertex 5 2.3969999999999994 0
vertex 0 2.3969999999999994 0
endloop
endfacet
facet normal 0 0 -1
outer loop
vertex 5 2.5 0
vertex 0 2.3969999999999994 0
vertex 0 2.5 0
endloop
endfacet
facet normal 0 0 -1
outer loop
vertex 4.99 2.3969999999999994 0
vertex 4.99 2.3959999999999995 0
vertex 0 2.3959999999999995 0
endloop
endfacet
facet normal 0 0 -1
outer loop
vertex 4.99 2.3969999999999994 0
vertex 0 2.3959999999999995 0
vertex 0 2.3969999999999994 0
endloop
endfacet
facet normal 0 0 -1
outer loop
vertex 4.29 2.3959999999999995 0
vertex 4.29 2.3949999999999996 0
vertex 0 2.3949999999999996 0
endloop
endfacet
facet normal 0 0 -1
outer loop
vertex 4.29 2.3959999999999995 0
vertex 0 2.3949999999999996 0
vertex 0 2.3959999999999995 0
endloop
endfacet
facet normal 0 0 -1
outer loop
vertex 3.59 2.3949999999999996 0
vertex 3.59 2.3939999999999997 0
vertex 0 2.3939999999999997 0
endloop
endfacet
facet normal 0 0 -1
outer loop
vertex 3.59 2.3949999999999996 0
vertex 0 2.3939999999999997 0
vertex 0 2.3949999999999996 0
endloop
endfacet
facet normal 0 0 -1
outer loop
vertex 2.8899999999999997 2.3939999999999997 0
vertex 2.8899999999999997 2.393 0
vertex 0 2.393 0
endloop
endfacet
facet normal 0 0 -1
outer loop
vertex 2.8899999999999997 2.3939999999999997 0
vertex 0 2.393 0
vertex 0 2.3939999999999997 0
endloop
endfacet
facet normal 0 0 -1
outer loop
vertex 2.1899999999999995 2.393 0
vertex 2.1899999999999995 2.392 0
vertex 0 2.392 0
endloop
endfacet
facet normal 0 0 -1
outer loop
vertex 2.1899999999999995 2.393 0
vertex 0 2.392 0
vertex 0 2.393 0
endloop
endfacet
facet normal 0 0 -1
outer loop
vertex 1.4899999999999998 2.392 0
vertex 1.4899999999999998 2.391 0
vertex 0 2.391 0
endloop
endfacet
facet normal 0 0 -1
outer loop
vertex 1.4899999999999998 2.392 0
vertex 0 2.391 0
vertex 0 2.392 0
endloop
endfacet
facet normal 0 0 -1
outer loop
vertex 0.79 2.391 0
vertex 0.79 2.39 0
vertex 0 2.39 0
endloop
endfacet
facet normal 0 0 -1
outer loop
vertex 0.79 2.391 0
vertex 0 2.39 0
vertex 0 2.391 0
endloop
endfacet
facet normal 0 0 -1
outer loop
vertex 0.79 2.39 0
vertex 0.79 2 0
vertex 0.49000000000000016 2 0
endloop
endfacet
facet normal 0 0 -1
outer loop
vertex 0.79 2.39 0
vertex 0.49000000000000016 2 0
vertex 0.4900000000000002 2.39 0
endloop
endfacet
facet normal 0 0 -1
outer loop
vertex 1.4899999999999998 2.391 0
vertex 1.4899999999999998 2 0
vertex 1.19 2 0
endloop
endfacet
facet normal 0 0 -1
outer loop
vertex 1.4899999999999998 2.391 0
vertex 1.19 2 0
vertex 1.19 2.391 0
endloop
endfacet
facet normal 0 0 -1
outer loop
vertex 2.1899999999999995 2.392 0
vertex 2.1899999999999995 2 0
vertex 1.8899999999999997 2 0
endloop
endfacet
facet normal 0 0 -1
outer loop
vertex 2.1899999999999995 2.392 0
vertex 1.8899999999999997 2 0
vertex 1.8899999999999997 2.392 0
endloop
endfacet
facet normal 0 0 -1
outer loop
vertex 2.8899999999999997 2.393 0
vertex 2.8899999999999997 2 0
vertex 2.59 2 0
endloop
endfacet
facet normal 0 0 -1
outer loop
vertex 2.8899999999999997 2.393 0
vertex 2.59 2 0
vertex 2.59 2.393 0
endloop
endfacet
facet normal 0 0 -1
outer loop
vertex 3.59 2.3939999999999997 0
vertex 3.59 2 0
vertex 3.29 2 0
endloop
endfacet
facet normal 0 0 -1
outer loop
vertex 3.59 2.3939999999999997 0
vertex 3.29 2 0
vertex 3.29 2.3939999999999997 0
endloop
endfacet
facet normal 0 0 -1
outer loop
vertex 4.29 2.3949999999999996 0
vertex 4.29 2 0
vertex 3.99 2 0
endloop
endfacet
facet normal 0 0 -1
outer loop
vertex 4.29 2.3949999999999996 0
vertex 3.99 2 0
vertex 3.99 2.3949999999999996 0
endloop
endfacet
facet normal 0 0 -1
outer loop
vertex 4.99 2.3959999999999995 0
vertex 4.99 0.09699999999999998 0
vertex 4.69 0.09699999999999998 0
endloop
endfacet
facet normal 0 0 -1
outer loop
vertex 4.99 2.3959999999999995 0
vertex 4.69 0.09699999999999998 0
vertex 4.69 2.3959999999999995 0
endloop
endfacet
facet normal 0 0 -1
outer loop
vertex 4.29 0.5 0
vertex 4.29 0.096 0
vertex 3.99 0.096 0
endloop
endfacet
facet normal 0 0 -1
outer loop
vertex 4.29 0.5 0
vertex 3.99 0.096 0
vertex 3.99 0.5 0
endloop
endfacet
facet normal 0 0 -1
outer loop
vertex 5 0.09699999999999998 0
vertex 5 0.096 0
vertex 4.69 0.096 0
endloop
endfacet
facet normal 0 0 -1
outer loop
vertex 5 0.09699999999999998 0
vertex 4.69 0.096 0
vertex 4.69 0.09699999999999998 0
endloop
endfacet
facet normal 0 0 -1
outer loop
vertex 3.59 0.5 0
vertex 3.59 0.095 0
vertex 3.29 0.095 0
endloop
endfacet
facet normal 0 0 -1
outer loop
vertex 3.59 0.5 0
vertex 3.29 0.095 0
vertex 3.29 0.5 0
endloop
endfacet
facet normal 0 0 -1
outer loop
vertex 5 0.096 0
vertex 5 0.095 0
vertex 3.99 0.095 0
endloop
endfacet
facet normal 0 0 -1
outer loop
vertex 5 0.096 0
vertex 3.99 0.095 0
vertex 3.99 0.096 0
endloop
endfacet
facet normal 0 0 -1
outer loop
vertex 2.8899999999999997 0.5 0
vertex 2.8899999999999997 0.094 0
vertex 2.59 0.094 0
endloop
endfacet
facet normal 0 0 -1
outer loop
vertex 2.8899999999999997 0.5 0
vertex 2.59 0.094 0
vertex 2.59 0.5 0
endloop
endfacet
facet normal 0 0 -1
outer loop
vertex 5 0.095 0
vertex 5 0.094 0
vertex 3.29 0.094 0
endloop
endfacet
facet normal 0 0 -1
outer loop
vertex 5 0.095 0
vertex 3.29 0.094 0
vertex 3.29 0.095 0
endloop
endfacet
facet normal 0 0 -1
outer loop
vertex 2.1899999999999995 0.5 0
vertex 2.1899999999999995 0.093 0
vertex 1.89 0.093 0
endloop
endfacet
facet normal 0 0 -1
outer loop
vertex 2.1899999999999995 0.5 0
vertex 1.89 0.093 0
vertex 1.89 0.5 0
endloop
endfacet
facet normal 0 0 -1
outer loop
vertex 5 0.094 0
vertex 5 0.093 0
vertex 2.59 0.093 0
endloop
endfacet
facet normal 0 0 -1
outer loop
vertex 5 0.094 0
vertex 2.59 0.093 0
vertex 2.59 0.094 0
endloop
endfacet
facet normal 0 0 -1
outer loop
vertex 1.4899999999999998 0.5 0
vertex 1.4899999999999998 0.092 0
vertex 1.19 0.092 0
endloop
endfacet
facet normal 0 0 -1
outer loop
vertex 1.4899999999999998 0.5 0
vertex 1.19 0.092 0
vertex 1.19 0.5 0
endloop
endfacet
facet normal 0 0 -1
outer loop
vertex 5 0.093 0
vertex 5 0.092 0
vertex 1.89 0.092 0
endloop
endfacet
facet normal 0 0 -1
outer loop
vertex 5 0.093 0
vertex 1.89 0.092 0
vertex 1.89 0.093 0
endloop
endfacet
facet normal 0 0 -1
outer loop
vertex 0.79 0.5 0
vertex 0.79 0.091 0
vertex 0.49 0.091 0
endloop
endfacet
facet normal 0 0 -1
outer loop
vertex 0.79 0.5 0
vertex 0.49 0.091 0
vertex 0.49000000000000005 0.5 0
endloop
endfacet
facet normal 0 0 -1
outer loop
vertex 5 0.092 0
vertex 5 0.091 0
vertex 1.19 0.091 0
endloop
endfacet
facet normal 0 0 -1
outer loop
vertex 5 0.092 0
vertex 1.19 0.091 0
vertex 1.19 0.092 0
endloop
endfacet
facet normal 0 0 -1
outer loop
vertex 0.08999999999999986 2.39 0
vertex 0.09 0.09 0
vertex 0 0.09 0
endloop
endfacet
facet normal 0 0 -1
outer loop
vertex 0.08999999999999986 2.39 0
vertex 0 0.09 0
vertex 0 2.39 0
endloop
endfacet
facet normal 0 0 -1
outer loop
vertex 5 0.091 0
vertex 5 0.09 0
vertex 0.49 0.09 0
endloop
endfacet
facet normal 0 0 -1
outer loop
vertex 5 0.091 0
vertex 0.49 0.09 0
vertex 0.49 0.091 0
endloop
endfacet
facet normal 0 0 -1
outer loop
vertex 5 0.09 0
vertex 5 0 0
vertex 0 0 0
endloop
endfacet
facet normal 0 0 -1
outer loop
vertex 5 0.09 0
vertex 0 0 0
vertex 0 0.09 0
endloop
endfacet
facet normal 0 0 1
outer loop
vertex 5 0 0.4
vertex 5 0.09 0.4
vertex 0 0.09 0.4
endloop
endfacet
facet normal 0 0 1
outer loop
vertex 5 0 0.4
vertex 0 0.09 0.4
vertex 0 0 0.4
endloop
endfacet
facet normal 0 0 1
outer loop
vertex 5 0.09 0.4
vertex 5 0.091 0.4
vertex 0.4900000000000002 0.091 0.4
endloop
endfacet
facet normal 0 0 1
outer loop
vertex 5 0.09 0.4
vertex 0.4900000000000002 0.091 0.4
vertex 0.4900000000000002 0.09 0.4
endloop
endfacet
facet normal 0 0 1
outer loop
vertex 5 0.091 0.4
vertex 5 0.092 0.4
vertex 1.19 0.092 0.4
endloop
endfacet
facet normal 0 0 1
outer loop
vertex 5 0.091 0.4
vertex 1.19 0.092 0.4
vertex 1.19 0.091 0.4
endloop
endfacet
facet normal 0 0 1
outer loop
vertex 5 0.092 0.4
vertex 5 0.093 0.4
vertex 1.8899999999999997 0.093 0.4
endloop
endfacet
facet normal 0 0 1
outer loop
vertex 5 0.092 0.4
vertex 1.8899999999999997 0.093 0.4
vertex 1.8899999999999997 0.092 0.4
endloop
endfacet
facet normal 0 0 1
outer loop
vertex 5 0.093 0.4
vertex 5 0.094 0.4
vertex 2.59 0.094 0.4
endloop
endfacet
facet normal 0 0 1
outer loop
vertex 5 0.093 0.4
vertex 2.59 0.094 0.4
vertex 2.59 0.093 0.4
endloop
endfacet
facet normal 0 0 1
outer loop
vertex 5 0.094 0.4
vertex 5 0.095 0.4
vertex 3.29 0.095 0.4
endloop
endfacet
facet normal 0 0 1
outer loop
vertex 5 0.094 0.4
vertex 3.29 0.095 0.4
vertex 3.29 0.094 0.4
endloop
endfacet
facet normal 0 0 1
outer loop
vertex 5 0.095 0.4
vertex 5 0.096 0.4
vertex 3.99 0.096 0.4
endloop
endfacet
facet normal 0 0 1
outer loop
vertex 5 0.095 0.4
vertex 3.99 0.096 0.4
vertex 3.99 0.095 0.4
endloop
endfacet
facet normal 0 0 1
outer loop
vertex 5 0.096 0.4
vertex 5 0.097 0.4
vertex 4.69 0.097 0.4
endloop
endfacet
facet normal 0 0 1
outer loop
vertex 5 0.096 0.4
vertex 4.69 0.097 0.4
vertex 4.69 0.096 0.4
endloop
endfacet
facet normal 0 0 1
outer loop
vertex 0.79 0.091 0.4
vertex 0.79 0.5 0.4
vertex 0.49000000000000016 0.5 0.4
endloop
endfacet
facet normal 0 0 1
outer loop
vertex 0.79 0.091 0.4
vertex 0.49000000000000016 0.5 0.4
vertex 0.4900000000000002 0.091 0.4
endloop
endfacet
facet normal 0 0 1
outer loop
vertex 1.4899999999999998 0.092 0.4
vertex 1.4899999999999998 0.5 0.4
vertex 1.19 0.5 0.4
endloop
endfacet
facet normal 0 0 1
outer loop
vertex 1.4899999999999998 0.092 0.4
vertex 1.19 0.5 0.4
vertex 1.19 0.092 0.4
endloop
endfacet
facet normal 0 0 1
outer loop
vertex 2.1899999999999995 0.093 0.4
vertex 2.1899999999999995 0.5 0.4
vertex 1.8899999999999997 0.5 0.4
endloop
endfacet
facet normal 0 0 1
outer loop
vertex 2.1899999999999995 0.093 0.4
vertex 1.8899999999999997 0.5 0.4
vertex 1.8899999999999997 0.093 0.4
endloop
endfacet
facet normal 0 0 1
outer loop
vertex 2.8899999999999997 0.094 0.4
vertex 2.8899999999999997 0.5 0.4
vertex 2.59 0.5 0.4
endloop
endfacet
facet normal 0 0 1
outer loop
vertex 2.8899999999999997 0.094 0.4
vertex 2.59 0.5 0.4
vertex 2.59 0.094 0.4
endloop
endfacet
facet normal 0 0 1
outer loop
vertex 3.59 0.095 0.4
vertex 3.59 0.5 0.4
vertex 3.29 0.5 0.4
endloop
endfacet
facet normal 0 0 1
outer loop
vertex 3.59 0.095 0.4
vertex 3.29 0.5 0.4
vertex 3.29 0.095 0.4
endloop
endfacet
facet normal 0 0 1
outer loop
vertex 4.29 0.096 0.4
vertex 4.29 0.5 0.4
vertex 3.99 0.5 0.4
endloop
endfacet
facet normal 0 0 1
outer loop
vertex 4.29 0.096 0.4
vertex 3.99 0.5 0.4
vertex 3.99 0.096 0.4
endloop
endfacet
facet normal 0 0 1
outer loop
vertex 0.08999999999999986 0.09 0.4
vertex 0.09 2.39 0.4
vertex 0 2.39 0.4
endloop
endfacet
facet normal 0 0 1
outer loop
vertex 0.08999999999999986 0.09 0.4
vertex 0 2.39 0.4
vertex 0 0.09 0.4
endloop
endfacet
facet normal 0 0 1
outer loop
vertex 0.79 2 0.4
vertex 0.79 2.39 0.4
vertex 0.49 2.39 0.4
endloop
endfacet
facet normal 0 0 1
outer loop
vertex 0.79 2 0.4
vertex 0.49 2.39 0.4
vertex 0.49000000000000005 2 0.4
endloop
endfacet
facet normal 0 0 1
outer loop
vertex 0.79 2.39 0.4
vertex 0.79 2.391 0.4
vertex 0 2.391 0.4
endloop
endfacet
facet normal 0 0 1
outer loop
vertex 0.79 2.39 0.4
vertex 0 2.391 0.4
vertex 0 2.39 0.4
endloop
endfacet
facet normal 0 0 1
outer loop
vertex 1.4899999999999998 2 0.4
vertex 1.4899999999999998 2.391 0.4
vertex 1.19 2.391 0.4
endloop
endfacet
facet normal 0 0 1
outer loop
vertex 1.4899999999999998 2 0.4
vertex 1.19 2.391 0.4
vertex 1.19 2 0.4
endloop
endfacet
facet normal 0 0 1
outer loop
vertex 1.4899999999999998 2.391 0.4
vertex 1.4899999999999998 2.392 0.4
vertex 0 2.392 0.4
endloop
endfacet
facet normal 0 0 1
outer loop
vertex 1.4899999999999998 2.391 0.4
vertex 0 2.392 0.4
vertex 0 2.391 0.4
endloop
endfacet
facet normal 0 0 1
outer loop
vertex 2.1899999999999995 2 0.4
vertex 2.1899999999999995 2.392 0.4
vertex 1.89 2.392 0.4
endloop
endfacet
facet normal 0 0 1
outer loop
vertex 2.1899999999999995 2 0.4
vertex 1.89 2.392 0.4
vertex 1.89 2 0.4
endloop
endfacet
facet normal 0 0 1
outer loop
vertex 2.1899999999999995 2.392 0.4
vertex 2.1899999999999995 2.393 0.4
vertex 0 2.393 0.4
endloop
endfacet
facet normal 0 0 1
outer loop
vertex 2.1899999999999995 2.392 0.4
vertex 0 2.393 0.4
vertex 0 2.392 0.4
endloop
endfacet
facet normal 0 0 1
outer loop
vertex 2.8899999999999997 2 0.4
vertex 2.8899999999999997 2.393 0.4
vertex 2.59 2.393 0.4
endloop
endfacet
facet normal 0 0 1
outer loop
vertex 2.8899999999999997 2 0.4
vertex 2.59 2.393 0.4
vertex 2.59 2 0.4
endloop
endfacet
facet normal 0 0 1
outer loop
vertex 2.8899999999999997 2.393 0.4
vertex 2.8899999999999997 2.3939999999999997 0.4
vertex 0 2.3939999999999997 0.4
endloop
endfacet
facet normal 0 0 1
outer loop
vertex 2.8899999999999997 2.393 0.4
vertex 0 2.3939999999999997 0.4
vertex 0 2.393 0.4
endloop
endfacet
facet normal 0 0 1
outer loop
vertex 3.59 2 0.4
vertex 3.59 2.3939999999999997 0.4
vertex 3.29 2.3939999999999997 0.4
endloop
endfacet
facet normal 0 0 1
outer loop
vertex 3.59 2 0.4
vertex 3.29 2.3939999999999997 0.4
vertex 3.29 2 0.4
endloop
endfacet
facet normal 0 0 1
outer loop
vertex 3.59 2.3939999999999997 0.4
vertex 3.59 2.3949999999999996 0.4
vertex 0 2.3949999999999996 0.4
endloop
endfacet
facet normal 0 0 1
outer loop
vertex 3.59 2.3939999999999997 0.4
vertex 0 2.3949999999999996 0.4
vertex 0 2.3939999999999997 0.4
endloop
endfacet
facet normal 0 0 1
outer loop
vertex 4.29 2 0.4
vertex 4.29 2.3949999999999996 0.4
vertex 3.99 2.3949999999999996 0.4
endloop
endfacet
facet normal 0 0 1
outer loop
vertex 4.29 2 0.4
vertex 3.99 2.3949999999999996 0.4
vertex 3.99 2 0.4
endloop
endfacet
facet normal 0 0 1
outer loop
vertex 4.29 2.3949999999999996 0.4
vertex 4.29 2.3959999999999995 0.4
vertex 0 2.3959999999999995 0.4
endloop
endfacet
facet normal 0 0 1
outer loop
vertex 4.29 2.3949999999999996 0.4
vertex 0 2.3959999999999995 0.4
vertex 0 2.3949999999999996 0.4
endloop
endfacet
facet normal 0 0 1
outer loop
vertex 4.99 0.097 0.4
vertex 4.99 2.3959999999999995 0.4
vertex 4.69 2.3959999999999995 0.4
endloop
endfacet
facet normal 0 0 1
outer loop
vertex 4.99 0.097 0.4
vertex 4.69 2.3959999999999995 0.4
vertex 4.69 0.097 0.4
endloop
endfacet
facet normal 0 0 1
outer loop
vertex 4.99 2.3959999999999995 0.4
vertex 4.99 2.3969999999999994 0.4
vertex 0 2.3969999999999994 0.4
endloop
endfacet
facet normal 0 0 1
outer loop
vertex 4.99 2.3959999999999995 0.4
vertex 0 2.3969999999999994 0.4
vertex 0 2.3959999999999995 0.4
endloop
endfacet
facet normal 0 0 1
outer loop
vertex 5 2.3969999999999994 0.4
vertex 5 2.5 0.4
vertex 0 2.5 0.4
endloop
endfacet
facet normal 0 0 1
outer loop
vertex 5 2.3969999999999994 0.4
vertex 0 2.5 0.4
vertex 0 2.3969999999999994 0.4
endloop
endfacet
facet normal 1 0 0
outer loop
vertex 0.08999999999999986 0.09 0.4
vertex 0.09 0.09 0
vertex 0.08999999999999986 2.39 0
endloop
endfacet
facet normal 1 0 0
outer loop
vertex 0.08999999999999986 0.09 0.4
vertex 0.08999999999999986 2.39 0
vertex 0.09 2.39 0.4
endloop
endfacet
facet normal -1 0 0
outer loop
vertex 0.49000000000000016 0.5 0.4
vertex 0.49000000000000005 0.5 0
vertex 0.49 0.09 0
endloop
endfacet
facet normal -1 0 0
outer loop
vertex 0.49000000000000016 0.5 0.4
vertex 0.49 0.09 0
vertex 0.4900000000000002 0.09 0.4
endloop
endfacet
facet normal -1 0 0
outer loop
vertex 0.49 2.39 0.4
vertex 0.4900000000000002 2.39 0
vertex 0.49000000000000016 2 0
endloop
endfacet
facet normal -1 0 0
outer loop
vertex 0.49 2.39 0.4
vertex 0.49000000000000016 2 0
vertex 0.49000000000000005 2 0.4
endloop
endfacet
facet normal 0 1 0
outer loop
vertex 0.08999999999999986 0.09 0.4
vertex 0.4900000000000002 0.09 0.4
vertex 0.49 0.09 0
endloop
endfacet
facet normal 0 1 0
outer loop
vertex 0.08999999999999986 0.09 0.4
vertex 0.49 0.09 0
vertex 0.09 0.09 0
endloop
endfacet
facet normal 1 0 0
outer loop
vertex 0.79 0.5 0
vertex 0.79 0.5 0.4
vertex 0.79 0.091 0.4
endloop
endfacet
facet normal 1 0 0
outer loop
vertex 0.79 0.5 0
vertex 0.79 0.091 0.4
vertex 0.79 0.091 0
endloop
endfacet
facet normal 1 0 0
outer loop
vertex 0.79 2.391 0
vertex 0.79 2.391 0.4
vertex 0.79 2 0.4
endloop
endfacet
facet normal 1 0 0
outer loop
vertex 0.79 2.391 0
vertex 0.79 2 0.4
vertex 0.79 2 0
endloop
endfacet
facet normal -1 0 0
outer loop
vertex 1.19 0.5 0.4
vertex 1.19 0.5 0
vertex 1.19 0.091 0
endloop
endfacet
facet normal -1 0 0
outer loop
vertex 1.19 0.5 0.4
vertex 1.19 0.091 0
vertex 1.19 0.091 0.4
endloop
endfacet
facet normal -1 0 0
outer loop
vertex 1.19 2.391 0.4
vertex 1.19 2.391 0
vertex 1.19 2 0
endloop
endfacet
facet normal -1 0 0
outer loop
vertex 1.19 2.391 0.4
vertex 1.19 2 0
vertex 1.19 2 0.4
endloop
endfacet
facet normal 0 1 0
outer loop
vertex 0.79 0.091 0.4
vertex 1.19 0.091 0.4
vertex 1.19 0.091 0
endloop
endfacet
facet normal 0 1 0
outer loop
vertex 0.79 0.091 0.4
vertex 1.19 0.091 0
vertex 0.79 0.091 0
endloop
endfacet
facet normal 1 0 0
outer loop
vertex 1.4899999999999998 0.5 0
vertex 1.4899999999999998 0.5 0.4
vertex 1.4899999999999998 0.092 0.4
endloop
endfacet
facet normal 1 0 0
outer loop
vertex 1.4899999999999998 0.5 0
vertex 1.4899999999999998 0.092 0.4
vertex 1.4899999999999998 0.092 0
endloop
endfacet
facet normal 1 0 0
outer loop
vertex 1.4899999999999998 2.392 0
vertex 1.4899999999999998 2.392 0.4
vertex 1.4899999999999998 2 0.4
endloop
endfacet
facet normal 1 0 0
outer loop
vertex 1.4899999999999998 2.392 0
vertex 1.4899999999999998 2 0.4
vertex 1.4899999999999998 2 0
endloop
endfacet
facet normal -1 0 0
outer loop
vertex 1.8899999999999997 0.5 0.4
vertex 1.89 0.5 0
vertex 1.89 0.092 0
endloop
endfacet
facet normal -1 0 0
outer loop
vertex 1.8899999999999997 0.5 0.4
vertex 1.89 0.092 0
vertex 1.8899999999999997 0.092 0.4
endloop
endfacet
facet normal -1 0 0
outer loop
vertex 1.89 2.392 0.4
vertex 1.8899999999999997 2.392 0
vertex 1.8899999999999997 2 0
endloop
endfacet
facet normal -1 0 0
outer loop
vertex 1.89 2.392 0.4
vertex 1.8899999999999997 2 0
vertex 1.89 2 0.4
endloop
endfacet
facet normal 0 1 0
outer loop
vertex 1.4899999999999998 0.092 0.4
vertex 1.8899999999999997 0.092 0.4
vertex 1.89 0.092 0
endloop
endfacet
facet normal 0 1 0
outer loop
vertex 1.4899999999999998 0.092 0.4
vertex 1.89 0.092 0
vertex 1.4899999999999998 0.092 0
endloop
endfacet
facet normal 1 0 0
outer loop
vertex 2.1899999999999995 0.5 0
vertex 2.1899999999999995 0.5 0.4
vertex 2.1899999999999995 0.093 0.4
endloop
endfacet
facet normal 1 0 0
outer loop
vertex 2.1899999999999995 0.5 0
vertex 2.1899999999999995 0.093 0.4
vertex 2.1899999999999995 0.093 0
endloop
endfacet
facet normal 1 0 0
outer loop
vertex 2.1899999999999995 2.393 0
vertex 2.1899999999999995 2.393 0.4
vertex 2.1899999999999995 2 0.4
endloop
endfacet
facet normal 1 0 0
outer loop
vertex 2.1899999999999995 2.393 0
vertex 2.1899999999999995 2 0.4
vertex 2.1899999999999995 2 0
endloop
endfacet
facet normal -1 0 0
outer loop
vertex 2.59 0.5 0.4
vertex 2.59 0.5 0
vertex 2.59 0.093 0
endloop
endfacet
facet normal -1 0 0
outer loop
vertex 2.59 0.5 0.4
vertex 2.59 0.093 0
vertex 2.59 0.093 0.4
endloop
endfacet
facet normal -1 0 0
outer loop
vertex 2.59 2.393 0.4
vertex 2.59 2.393 0
vertex 2.59 2 0
endloop
endfacet
facet normal -1 0 0
outer loop
vertex 2.59 2.393 0.4
vertex 2.59 2 0
vertex 2.59 2 0.4
endloop
endfacet
facet normal 0 1 0
outer loop
vertex 2.1899999999999995 0.093 0.4
vertex 2.59 0.093 0.4
vertex 2.59 0.093 0
endloop
endfacet
facet normal 0 1 0
outer loop
vertex 2.1899999999999995 0.093 0.4
vertex 2.59 0.093 0
vertex 2.1899999999999995 0.093 0
endloop
endfacet
facet normal 1 0 0
outer loop
vertex 2.8899999999999997 0.5 0
vertex 2.8899999999999997 0.5 0.4
vertex 2.8899999999999997 0.094 0.4
endloop
endfacet
facet normal 1 0 0
outer loop
vertex 2.8899999999999997 0.5 0
vertex 2.8899999999999997 0.094 0.4
vertex 2.8899999999999997 0.094 0
endloop
endfacet
facet normal 1 0 0
outer loop
vertex 2.8899999999999997 2.3939999999999997 0
vertex 2.8899999999999997 2.3939999999999997 0.4
vertex 2.8899999999999997 2 0.4
endloop
endfacet
facet normal 1 0 0
outer loop
vertex 2.8899999999999997 2.3939999999999997 0
vertex 2.8899999999999997 2 0.4
vertex 2.8899999999999997 2 0
endloop
endfacet
facet normal -1 0 0
outer loop
vertex 3.29 0.5 0.4
vertex 3.29 0.5 0
vertex 3.29 0.094 0
endloop
endfacet
facet normal -1 0 0
outer loop
vertex 3.29 0.5 0.4
vertex 3.29 0.094 0
vertex 3.29 0.094 0.4
endloop
endfacet
facet normal -1 0 0
outer loop
vertex 3.29 2.3939999999999997 0.4
vertex 3.29 2.3939999999999997 0
vertex 3.29 2 0
endloop
endfacet
facet normal -1 0 0
outer loop
vertex 3.29 2.3939999999999997 0.4
vertex 3.29 2 0
vertex 3.29 2 0.4
endloop
endfacet
facet normal 0 1 0
outer loop
vertex 2.8899999999999997 0.094 0.4
vertex 3.29 0.094 0.4
vertex 3.29 0.094 0
endloop
endfacet
facet normal 0 1 0
outer loop
vertex 2.8899999999999997 0.094 0.4
vertex 3.29 0.094 0
vertex 2.8899999999999997 0.094 0
endloop
endfacet
facet normal 1 0 0
outer loop
vertex 3.59 0.5 0
vertex 3.59 0.5 0.4
vertex 3.59 0.095 0.4
endloop
endfacet
facet normal 1 0 0
outer loop
vertex 3.59 0.5 0
vertex 3.59 0.095 0.4
vertex 3.59 0.095 0
endloop
endfacet
facet normal 1 0 0
outer loop
vertex 3.59 2.3949999999999996 0
vertex 3.59 2.3949999999999996 0.4
vertex 3.59 2 0.4
endloop
endfacet
facet normal 1 0 0
outer loop
vertex 3.59 2.3949999999999996 0
vertex 3.59 2 0.4
vertex 3.59 2 0
endloop
endfacet
facet normal -1 0 0
outer loop
vertex 3.99 0.5 0.4
vertex 3.99 0.5 0
vertex 3.99 0.095 0
endloop
endfacet
facet normal -1 0 0
outer loop
vertex 3.99 0.5 0.4
vertex 3.99 0.095 0
vertex 3.99 0.095 0.4
endloop
endfacet
facet normal -1 0 0
outer loop
vertex 3.99 2.3949999999999996 0.4
vertex 3.99 2.3949999999999996 0
vertex 3.99 2 0
endloop
endfacet
facet normal -1 0 0
outer loop
vertex 3.99 2.3949999999999996 0.4
vertex 3.99 2 0
vertex 3.99 2 0.4
endloop
endfacet
facet normal 0 1 0
outer loop
vertex 3.59 0.095 0.4
vertex 3.99 0.095 0.4
vertex 3.99 0.095 0
endloop
endfacet
facet normal 0 1 0
outer loop
vertex 3.59 0.095 0.4
vertex 3.99 0.095 0
vertex 3.59 0.095 0
endloop
endfacet
facet normal 1 0 0
outer loop
vertex 4.29 0.5 0
vertex 4.29 0.5 0.4
vertex 4.29 0.096 0.4
endloop
endfacet
facet normal 1 0 0
outer loop
vertex 4.29 0.5 0
vertex 4.29 0.096 0.4
vertex 4.29 0.096 0
endloop
endfacet
facet normal 1 0 0
outer loop
vertex 4.29 2.3959999999999995 0
vertex 4.29 2.3959999999999995 0.4
vertex 4.29 2 0.4
endloop
endfacet
facet normal 1 0 0
outer loop
vertex 4.29 2.3959999999999995 0
vertex 4.29 2 0.4
vertex 4.29 2 0
endloop
endfacet
facet normal -1 0 0
outer loop
vertex 4.69 0.096 0
vertex 4.69 0.096 0.4
vertex 4.69 2.3959999999999995 0.4
endloop
endfacet
facet normal -1 0 0
outer loop
vertex 4.69 0.096 0
vertex 4.69 2.3959999999999995 0.4
vertex 4.69 2.3959999999999995 0
endloop
endfacet
facet normal 0 1 0
outer loop
vertex 4.29 0.096 0.4
vertex 4.69 0.096 0.4
vertex 4.69 0.096 0
endloop
endfacet
facet normal 0 1 0
outer loop
vertex 4.29 0.096 0.4
vertex 4.69 0.096 0
vertex 4.29 0.096 0
endloop
endfacet
facet normal 1 0 0
outer loop
vertex 4.99 0.097 0.4
vertex 4.99 0.09699999999999998 0
vertex 4.99 2.3969999999999994 0
endloop
endfacet
facet normal 1 0 0
outer loop
vertex 4.99 0.097 0.4
vertex 4.99 2.3969999999999994 0
vertex 4.99 2.3969999999999994 0.4
endloop
endfacet
facet normal 0 1 0
outer loop
vertex 4.99 0.097 0.4
vertex 5 0.097 0.4
vertex 5 0.09699999999999998 0
endloop
endfacet
facet normal 0 1 0
outer loop
vertex 4.99 0.097 0.4
vertex 5 0.09699999999999998 0
vertex 4.99 0.09699999999999998 0
endloop
endfacet
facet normal 0 -1 0
outer loop
vertex 0.4900000000000002 2.39 0
vertex 0.49 2.39 0.4
vertex 0.09 2.39 0.4
endloop
endfacet
facet normal 0 -1 0
outer loop
vertex 0.4900000000000002 2.39 0
vertex 0.09 2.39 0.4
vertex 0.08999999999999986 2.39 0
endloop
endfacet
facet normal 0 -1 0
outer loop
vertex 1.19 2.391 0
vertex 1.19 2.391 0.4
vertex 0.79 2.391 0.4
endloop
endfacet
facet normal 0 -1 0
outer loop
vertex 1.19 2.391 0
vertex 0.79 2.391 0.4
vertex 0.79 2.391 0
endloop
endfacet
facet normal 0 -1 0
outer loop
vertex 1.8899999999999997 2.392 0
vertex 1.89 2.392 0.4
vertex 1.4899999999999998 2.392 0.4
endloop
endfacet
facet normal 0 -1 0
outer loop
vertex 1.8899999999999997 2.392 0
vertex 1.4899999999999998 2.392 0.4
vertex 1.4899999999999998 2.392 0
endloop
endfacet
facet normal 0 -1 0
outer loop
vertex 2.59 2.393 0
vertex 2.59 2.393 0.4
vertex 2.1899999999999995 2.393 0.4
endloop
endfacet
facet normal 0 -1 0
outer loop
vertex 2.59 2.393 0
vertex 2.1899999999999995 2.393 0.4
vertex 2.1899999999999995 2.393 0
endloop
endfacet
facet normal 0 -1 0
outer loop
vertex 3.29 2.3939999999999997 0
vertex 3.29 2.3939999999999997 0.4
vertex 2.8899999999999997 2.3939999999999997 0.4
endloop
endfacet
facet normal 0 -1 0
outer loop
vertex 3.29 2.3939999999999997 0
vertex 2.8899999999999997 2.3939999999999997 0.4
vertex 2.8899999999999997 2.3939999999999997 0
endloop
endfacet
facet normal 0 -1 0
outer loop
vertex 3.99 2.3949999999999996 0
vertex 3.99 2.3949999999999996 0.4
vertex 3.59 2.3949999999999996 0.4
endloop
endfacet
facet normal 0 -1 0
outer loop
vertex 3.99 2.3949999999999996 0
vertex 3.59 2.3949999999999996 0.4
vertex 3.59 2.3949999999999996 0
endloop
endfacet
facet normal 0 -1 0
outer loop
vertex 4.69 2.3959999999999995 0
vertex 4.69 2.3959999999999995 0.4
vertex 4.29 2.3959999999999995 0.4
endloop
endfacet
facet normal 0 -1 0
outer loop
vertex 4.69 2.3959999999999995 0
vertex 4.29 2.3959999999999995 0.4
vertex 4.29 2.3959999999999995 0
endloop
endfacet
facet normal 0 -1 0
outer loop
vertex 5 2.3969999999999994 0
vertex 5 2.3969999999999994 0.4
vertex 4.99 2.3969999999999994 0.4
endloop
endfacet
facet normal 0 -1 0
outer loop
vertex 5 2.3969999999999994 0
vertex 4.99 2.3969999999999994 0.4
vertex 4.99 2.3969999999999994 0
endloop
endfacet
facet normal 0 1 0
outer loop
vertex 0.79 0.5 0.4
vertex 0.79 0.5 0
vertex 0.49000000000000005 0.5 0
endloop
endfacet
facet normal 0 1 0
outer loop
vertex 0.79 0.5 0.4
vertex 0.49000000000000005 0.5 0
vertex 0.49000000000000016 0.5 0.4
endloop
endfacet
facet normal 0 1 0
outer loop
vertex 1.4899999999999998 0.5 0.4
vertex 1.4899999999999998 0.5 0
vertex 1.19 0.5 0
endloop
endfacet
facet normal 0 1 0
outer loop
vertex 1.4899999999999998 0.5 0.4
vertex 1.19 0.5 0
vertex 1.19 0.5 0.4
endloop
endfacet
facet normal 0 1 0
outer loop
vertex 2.1899999999999995 0.5 0.4
vertex 2.1899999999999995 0.5 0
vertex 1.89 0.5 0
endloop
endfacet
facet normal 0 1 0
outer loop
vertex 2.1899999999999995 0.5 0.4
vertex 1.89 0.5 0
vertex 1.8899999999999997 0.5 0.4
endloop
endfacet
facet normal 0 1 0
outer loop
vertex 2.8899999999999997 0.5 0.4
vertex 2.8899999999999997 0.5 0
vertex 2.59 0.5 0
endloop
endfacet
facet normal 0 1 0
outer loop
vertex 2.8899999999999997 0.5 0.4
vertex 2.59 0.5 0
vertex 2.59 0.5 0.4
endloop
endfacet
facet normal 0 1 0
outer loop
vertex 3.59 0.5 0.4
vertex 3.59 0.5 0
vertex 3.29 0.5 0
endloop
endfacet
facet normal 0 1 0
outer loop
vertex 3.59 0.5 0.4
vertex 3.29 0.5 0
vertex 3.29 0.5 0.4
endloop
endfacet
facet normal 0 1 0
outer loop
vertex 4.29 0.5 0.4
vertex 4.29 0.5 0
vertex 3.99 0.5 0
endloop
endfacet
facet normal 0 1 0
outer loop
vertex 4.29 0.5 0.4
vertex 3.99 0.5 0
vertex 3.99 0.5 0.4
endloop
endfacet
facet normal 0 -1 0
outer loop
vertex 0.79 2 0
vertex 0.79 2 0.4
vertex 0.49000000000000005 2 0.4
endloop
endfacet
facet normal 0 -1 0
outer loop
vertex 0.79 2 0
vertex 0.49000000000000005 2 0.4
vertex 0.49000000000000016 2 0
endloop
endfacet
facet normal 0 -1 0
outer loop
vertex 1.4899999999999998 2 0
vertex 1.4899999999999998 2 0.4
vertex 1.19 2 0.4
endloop
endfacet
facet normal 0 -1 0
outer loop
vertex 1.4899999999999998 2 0
vertex 1.19 2 0.4
vertex 1.19 2 0
endloop
endfacet
facet normal 0 -1 0
outer loop
vertex 2.1899999999999995 2 0
vertex 2.1899999999999995 2 0.4
vertex 1.89 2 0.4
endloop
endfacet
facet normal 0 -1 0
outer loop
vertex 2.1899999999999995 2 0
vertex 1.89 2 0.4
vertex 1.8899999999999997 2 0
endloop
endfacet
facet normal 0 -1 0
outer loop
vertex 2.8899999999999997 2 0
vertex 2.8899999999999997 2 0.4
vertex 2.59 2 0.4
endloop
endfacet
facet normal 0 -1 0
outer loop
vertex 2.8899999999999997 2 0
vertex 2.59 2 0.4
vertex 2.59 2 0
endloop
endfacet
facet normal 0 -1 0
outer loop
vertex 3.59 2 0
vertex 3.59 2 0.4
vertex 3.29 2 0.4
endloop
endfacet
facet normal 0 -1 0
outer loop
vertex 3.59 2 0
vertex 3.29 2 0.4
vertex 3.29 2 0
endloop
endfacet
facet normal 0 -1 0
outer loop
vertex 4.29 2 0
vertex 4.29 2 0.4
vertex 3.99 2 0.4
endloop
endfacet
facet normal 0 -1 0
outer loop
vertex 4.29 2 0
vertex 3.99 2 0.4
vertex 3.99 2 0
endloop
endfacet
endsolid csg.js
